<?xml version="1.0" encoding="utf-8"?>
<!-- Generator: Adobe Illustrator 25.2.3, SVG Export Plug-In . SVG Version: 6.00 Build 0)  -->
<svg version="1.1" xmlns="http://www.w3.org/2000/svg" xmlns:xlink="http://www.w3.org/1999/xlink" x="0px" y="0px"
	 viewBox="0 0 600 404" style="enable-background:new 0 0 600 404;" xml:space="preserve">
<style type="text/css">
	.st0{fill:#FFFFFF;}
	.st1{fill:none;stroke:#000000;stroke-width:1.5;stroke-miterlimit:10;}
	.st2{font-family: sans-serif; font-weight: 600;}
	.st3{font-size:20px;}
</style>
<g id="BKGD">
	<g>
		<path class="st0" d="M15,403.75c-8.13,0-14.75-6.62-14.75-14.75V15C0.25,6.87,6.87,0.25,15,0.25h570
			c8.13,0,14.75,6.62,14.75,14.75v374c0,8.13-6.62,14.75-14.75,14.75H15z"/>
		<path d="M585,0.5c8,0,14.5,6.5,14.5,14.5v374c0,8-6.5,14.5-14.5,14.5H15c-8,0-14.5-6.5-14.5-14.5V15C0.5,7,7,0.5,15,0.5H585
			 M585,0H15C6.72,0,0,6.72,0,15v374c0,8.28,6.72,15,15,15h570c8.28,0,15-6.72,15-15V15C600,6.72,593.28,0,585,0L585,0z"/>
	</g>
</g>
<g id="GO_x5F_WW">
	<g>
		<line class="st1" x1="300.5" y1="222" x2="144.62" y2="312"/>
	</g>
	<g>
		<line class="st1" x1="300.5" y1="222" x2="456.38" y2="312"/>
	</g>
	<g>
		<line class="st1" x1="301" y1="42" x2="301" y2="222"/>
	</g>
	<g>
		<ellipse class="st0" cx="300" cy="222" rx="78.5" ry="53.5"/>
		<path d="M300,170c42.46,0,77,23.33,77,52s-34.54,52-77,52s-77-23.33-77-52S257.54,170,300,170 M300,167c-44.18,0-80,24.62-80,55
			s35.82,55,80,55s80-24.62,80-55S344.18,167,300,167L300,167z"/>
	</g>
	<g>
		<ellipse class="st0" cx="300" cy="82" rx="79.5" ry="44.5"/>
		<path d="M300,38c43.56,0,79,19.74,79,44s-35.44,44-79,44s-79-19.74-79-44S256.44,38,300,38 M300,37c-44.18,0-80,20.15-80,45
			s35.82,45,80,45s80-20.15,80-45S344.18,37,300,37L300,37z"/>
	</g>
	<g>
		<ellipse class="st0" cx="146" cy="311" rx="79.5" ry="44.5"/>
		<path d="M146,267c43.56,0,79,19.74,79,44s-35.44,44-79,44s-79-19.74-79-44S102.44,267,146,267 M146,266c-44.18,0-80,20.15-80,45
			s35.82,45,80,45s80-20.15,80-45S190.18,266,146,266L146,266z"/>
	</g>
	<g>
		<ellipse class="st0" cx="455" cy="311" rx="79.5" ry="44.5"/>
		<path d="M455,267c43.56,0,79,19.74,79,44s-35.44,44-79,44s-79-19.74-79-44S411.44,267,455,267 M455,266c-44.18,0-80,20.15-80,45
			s35.82,45,80,45s80-20.15,80-45S499.18,266,455,266L455,266z"/>
	</g>
</g>
<g id="TEXT">
	<text transform="matrix(1 0 0 1 251.7593 230.9863)" class="st2 st3">branches</text>
	<text transform="matrix(1 0 0 1 109.439 317.0898)" class="st2 st3">judicial</text>
	<text transform="matrix(1 0 0 1 405.6997 317.0898)" class="st2 st3">executive</text>
	<text transform="matrix(1 0 0 1 249.1494 88.9863)" class="st2 st3">legislative </text>
</g>
</svg>
